<svg width="28" height="28" viewBox="0 0 28 28" fill="none" xmlns="http://www.w3.org/2000/svg">
<g filter="url(#filter0_d_33_15)">
<path d="M15 9H19V11H15V15H13V11H9V9H13V5H15V9ZM14 20C11.3478 20 8.8043 18.9464 6.92893 17.0711C5.05357 15.1957 4 12.6522 4 10C4 7.34784 5.05357 4.8043 6.92893 2.92893C8.8043 1.05357 11.3478 0 14 0C16.6522 0 19.1957 1.05357 21.0711 2.92893C22.9464 4.8043 24 7.34784 24 10C24 12.6522 22.9464 15.1957 21.0711 17.0711C19.1957 18.9464 16.6522 20 14 20ZM14 18C16.1217 18 18.1566 17.1571 19.6569 15.6569C21.1571 14.1566 22 12.1217 22 10C22 7.87827 21.1571 5.84344 19.6569 4.34315C18.1566 2.84285 16.1217 2 14 2C11.8783 2 9.84344 2.84285 8.34315 4.34315C6.84285 5.84344 6 7.87827 6 10C6 12.1217 6.84285 14.1566 8.34315 15.6569C9.84344 17.1571 11.8783 18 14 18Z" 
fill="blue"/>
</g>
<defs>
<filter id="filter0_d_33_15" x="0" y="0" width="28" height="28" filterUnits="userSpaceOnUse" color-interpolation-filters="sRGB">
<feFlood flood-opacity="0" result="BackgroundImageFix"/>
<feColorMatrix in="SourceAlpha" type="matrix" values="0 0 0 0 0 0 0 0 0 0 0 0 0 0 0 0 0 0 127 0" result="hardAlpha"/>
<feOffset dy="4"/>
<feGaussianBlur stdDeviation="2"/>
<feComposite in2="hardAlpha" operator="out"/>
<feColorMatrix type="matrix" values="0 0 0 0 0 0 0 0 0 0 0 0 0 0 0 0 0 0 0.25 0"/>
<feBlend mode="normal" in2="BackgroundImageFix" result="effect1_dropShadow_33_15"/>
<feBlend mode="normal" in="SourceGraphic" in2="effect1_dropShadow_33_15" result="shape"/>
</filter>
</defs>
</svg>
