<svg width="32" height="32" viewBox="0 0 32 32" fill="none" xmlns="http://www.w3.org/2000/svg">
<path d="M10 31H6C5.47005 30.9984 4.96226 30.7872 4.58753 30.4125C4.2128 30.0377 4.00158 29.5299 4 29V22C3.47005 21.9984 2.96226 21.7872 2.58753 21.4125C2.2128 21.0377 2.00158 20.5299 2 20V14C1.99281 13.6041 2.0655 13.2107 2.21372 12.8435C2.36194 12.4763 2.58265 12.1427 2.86267 11.8627C3.14269 11.5827 3.47627 11.3619 3.8435 11.2137C4.21072 11.0655 4.60405 10.9928 5 11H11C11.3959 10.9928 11.7893 11.0655 12.1565 11.2137C12.5237 11.3619 12.8573 11.5827 13.1373 11.8627C13.4173 12.1427 13.6381 12.4763 13.7863 12.8435C13.9345 13.2107 14.0072 13.6041 14 14V20C13.9984 20.5299 13.7872 21.0377 13.4125 21.4125C13.0377 21.7872 12.5299 21.9984 12 22V29C11.9984 29.5299 11.7872 30.0377 11.4125 30.4125C11.0377 30.7872 10.5299 30.9984 10 31ZM5 13C4.86658 12.992 4.73299 13.0124 4.60803 13.0598C4.48307 13.1072 4.36959 13.1806 4.27508 13.2751C4.18057 13.3696 4.10719 13.4831 4.05977 13.608C4.01235 13.733 3.99198 13.8666 4 14V20H6V29H10V20H12V14C12.008 13.8666 11.9876 13.733 11.9402 13.608C11.8928 13.4831 11.8194 13.3696 11.7249 13.2751C11.6304 13.1806 11.5169 13.1072 11.392 13.0598C11.267 13.0124 11.1334 12.992 11 13H5ZM8 10C7.20887 10 6.43551 9.76541 5.77772 9.32588C5.11992 8.88635 4.60723 8.26164 4.30448 7.53074C4.00173 6.79983 3.92252 5.99556 4.07686 5.21964C4.2312 4.44372 4.61216 3.73098 5.17157 3.17157C5.73098 2.61216 6.44371 2.2312 7.21964 2.07686C7.99556 1.92252 8.79983 2.00173 9.53073 2.30448C10.2616 2.60723 10.8863 3.11992 11.3259 3.77772C11.7654 4.43552 12 5.20888 12 6C11.9987 7.06046 11.5768 8.07711 10.827 8.82697C10.0771 9.57683 9.06046 9.99868 8 10ZM8 4C7.60443 4 7.21776 4.1173 6.88886 4.33706C6.55996 4.55683 6.30361 4.86918 6.15224 5.23463C6.00086 5.60009 5.96126 6.00222 6.03843 6.39018C6.1156 6.77814 6.30608 7.13451 6.58578 7.41422C6.86549 7.69392 7.22185 7.8844 7.60982 7.96157C7.99778 8.03874 8.39991 7.99914 8.76536 7.84776C9.13082 7.69639 9.44317 7.44004 9.66294 7.11114C9.8827 6.78224 10 6.39556 10 6C10 5.46957 9.78928 4.96086 9.41421 4.58579C9.03914 4.21072 8.53043 4 8 4ZM28.766 4.256C28.0142 3.49136 26.9989 3.04241 25.9274 3.00078C24.8559 2.95916 23.8089 3.32799 23 4.032C22.1911 3.32799 21.1441 2.95916 20.0726 3.00078C19.0011 3.04241 17.9858 3.49136 17.234 4.256C16.4437 5.06335 16.0011 6.1482 16.0011 7.278C16.0011 8.4078 16.4437 9.49265 17.234 10.3L22.998 16.14L23 16.138L23.002 16.139L28.766 10.3C29.5563 9.49265 29.9989 8.4078 29.9989 7.278C29.9989 6.1482 29.5563 5.06335 28.766 4.256ZM27.342 8.895L23.002 13.292L23 13.29L22.998 13.292L18.658 8.895C18.2347 8.4632 17.9977 7.88265 17.9977 7.278C17.9977 6.67335 18.2347 6.09281 18.658 5.661C19.0806 5.25025 19.6467 5.02046 20.236 5.02046C20.8253 5.02046 21.3914 5.25025 21.814 5.661L22.995 6.868L23 6.863L23.005 6.868L24.185 5.661C24.6076 5.24995 25.1739 5.01997 25.7635 5.01997C26.3531 5.01997 26.9194 5.24995 27.342 5.661C27.7653 6.09281 28.0023 6.67335 28.0023 7.278C28.0023 7.88265 27.7653 8.4632 27.342 8.895Z" fill="#006A78"/>
</svg>
