<svg width="256" height="125" viewBox="0 0 256 125" fill="none" xmlns="http://www.w3.org/2000/svg">
<g clip-path="url(#clip0_59_13)">
<path d="M184.315 67.704C197.784 59.968 211.217 52.169 224.732 44.514C237.56 37.245 252.652 43.948 255.561 58.092C257.244 66.274 253.591 75.113 246.204 79.418C221.986 93.531 197.733 107.588 173.359 121.43C165.815 125.714 158.044 124.926 151.169 119.676C144.185 114.346 141.984 106.994 143.622 98.437C145.492 91.923 149.772 87.568 155.609 84.31C165.259 78.924 174.754 73.254 184.315 67.704Z" fill="#FABC05"/>
<path d="M194.203 62.079C180.768 54.283 167.299 46.548 153.911 38.673C141.202 31.197 139.462 14.775 150.256 5.18302C156.5 -0.363983 165.981 -1.62098 173.403 2.62402C197.735 16.541 222.035 30.517 246.209 44.704C253.691 49.095 256.893 56.22 255.786 64.799C254.661 73.511 249.396 79.093 241.166 81.954C234.589 83.592 228.678 82.062 222.938 78.636C213.448 72.971 203.79 67.583 194.203 62.079Z" fill="#109D58"/>
<path d="M71.7518 56.563C63.1308 61.461 54.5048 66.35 45.8918 71.263C40.8548 74.137 35.8718 77.109 30.8088 79.935C20.6058 85.63 8.48381 82.292 2.69881 72.261C-2.82219 62.689 0.35081 50.279 10.1768 44.543C34.2018 30.52 58.2888 16.599 82.4628 2.83303C89.8768 -1.38797 97.5688 -0.856974 104.425 4.19003C111.661 9.51703 114.03 17.013 112.405 25.8C111.397 27.927 110.795 30.42 109.285 32.095C106.831 34.82 104.041 37.429 100.935 39.345C91.3228 45.272 81.4948 50.85 71.7518 56.563Z" fill="#E94436"/>
<path d="M61.867 62.057C70.42 67.073 78.967 72.1 87.528 77.102C92.535 80.028 97.6 82.857 102.579 85.828C112.613 91.818 115.784 103.984 109.989 114.009C104.459 123.577 92.126 127.035 82.245 121.392C58.088 107.597 33.989 93.699 9.981 79.646C2.618 75.336 -0.768002 68.409 0.174998 59.948C1.17 51.017 6.477 45.218 14.9 42.231C17.245 42.042 19.705 41.316 21.911 41.786C25.498 42.55 29.153 43.661 32.365 45.393C42.304 50.753 52.048 56.475 61.867 62.057Z" fill="#4385F3"/>
</g>
<defs>
<clipPath id="clip0_59_13">
<rect width="256" height="125" fill="white"/>
</clipPath>
</defs>
</svg>
