<svg width="41" height="42" viewBox="0 0 41 42" fill="none" xmlns="http://www.w3.org/2000/svg">
<path d="M35.4346 31.9922H6.60645C6.43027 31.9922 6.28613 32.1398 6.28613 32.3203V34.7812C6.28613 34.9617 6.43027 35.1094 6.60645 35.1094H35.4346C35.6107 35.1094 35.7549 34.9617 35.7549 34.7812V32.3203C35.7549 32.1398 35.6107 31.9922 35.4346 31.9922ZM16.0156 13.3588H18.9745V27.2344C18.9745 27.4148 19.1187 27.5625 19.2948 27.5625H21.6972C21.8733 27.5625 22.0175 27.4148 22.0175 27.2344V13.3588H24.9844C25.2526 13.3588 25.4008 13.0429 25.2366 12.8297L20.7522 7.01365C20.7223 6.97444 20.684 6.94272 20.6403 6.92091C20.5966 6.89909 20.5486 6.88776 20.5 6.88776C20.4514 6.88776 20.4034 6.89909 20.3597 6.92091C20.316 6.94272 20.2777 6.97444 20.2478 7.01365L15.7634 12.8256C15.5992 13.043 15.7474 13.3588 16.0156 13.3588Z" fill="#006A78"/>
</svg>
