<svg width="1024" height="1024" viewBox="0 0 1024 1024" fill="none" xmlns="http://www.w3.org/2000/svg">
<path d="M521.7 82C369.2 81.6 235 160.5 158.3 279.7C154.9 285 158.7 292 165 292H235.3C240.1 292 244.6 289.9 247.6 286.2C254.6 277.7 262.1 269.5 270 261.7C302.6 229.2 340.5 203.6 382.7 185.8C426.3 167.4 472.7 158 520.6 158C568.5 158 614.9 167.3 658.5 185.8C700.7 203.6 738.6 229.2 771.2 261.7C803.8 294.2 829.3 332.1 847.2 374.2C865.7 417.8 875 464.1 875 512C875 559.9 865.6 606.2 847.2 649.8C829.4 691.9 803.8 729.8 771.2 762.3C738.6 794.8 700.7 820.4 658.5 838.2C614.866 856.63 567.967 866.085 520.6 866C472.7 866 426.3 856.6 382.7 838.2C340.582 820.419 302.31 794.644 270 762.3C262.1 754.4 254.7 746.2 247.6 737.8C244.6 734.1 240 732 235.3 732H165C158.7 732 154.8 739 158.3 744.3C234.9 863.2 368.5 942 520.6 942C756.8 942 948.6 751.9 951 516.4C953.4 277.1 761.3 82.6 521.7 82ZM395.02 624V548H81.02C76.62 548 73.02 544.4 73.02 540V484C73.02 479.6 76.62 476 81.02 476H395.02V400C395.02 393.3 402.82 389.5 408.02 393.7L549.92 505.7C550.876 506.448 551.649 507.405 552.181 508.496C552.713 509.588 552.99 510.786 552.99 512C552.99 513.214 552.713 514.412 552.181 515.504C551.649 516.596 550.876 517.552 549.92 518.3L408.02 630.3C402.82 634.4 395.02 630.7 395.02 624Z" fill="#006A78"/>
</svg>
