<svg width="48" height="48" viewBox="0 0 48 48" fill="none" xmlns="http://www.w3.org/2000/svg">
<path d="M24.9587 15.301L34.2877 21.206L32.5477 22.472L23.9247 17.014L15.3857 22.47L13.6577 21.2L22.8847 15.306C23.1937 15.1066 23.5533 15.0002 23.921 14.9993C24.2886 14.9984 24.6488 15.1031 24.9587 15.301Z" fill="white"/>
<path fill-rule="evenodd" clip-rule="evenodd" d="M6.8348 20.913C5.6768 20.063 5.7328 18.264 6.9408 17.493L22.8848 7.30499C23.1937 7.10567 23.5534 6.99924 23.9211 6.99836C24.2887 6.99747 24.6489 7.10216 24.9588 7.29999L41.0518 17.487C42.2688 18.257 42.3248 20.067 41.1568 20.917L25.0658 32.627C24.3798 33.127 23.4648 33.124 22.7798 32.622L6.8348 20.913ZM8.0178 19.177L23.9248 9.01399L39.9818 19.178L39.9868 19.181L39.9878 19.184C39.9963 19.1996 40.0004 19.2172 39.9998 19.235C40.0018 19.2539 39.9983 19.273 39.9898 19.29L39.9878 19.295L39.9808 19.301L23.9258 30.982L8.0188 19.301L8.0118 19.295L8.0088 19.289C8.00084 19.2722 7.99772 19.2535 7.9998 19.235C7.9992 19.2172 8.00334 19.1996 8.0118 19.184L8.0128 19.181L8.0178 19.177Z" fill="white"/>
<path d="M8.2368 24.664L9.9648 25.934L8.0178 27.177L8.0128 27.181L8.0118 27.184C8.00351 27.1993 7.99937 27.2166 7.9998 27.234C7.99734 27.2543 8.00118 27.2749 8.0108 27.293L8.0118 27.295L8.0188 27.301L23.9258 38.982L39.9808 27.301L39.9878 27.295L39.9888 27.293L39.9908 27.29C39.999 27.2729 40.0021 27.2538 39.9998 27.235C40.0004 27.2172 39.9963 27.1996 39.9878 27.184L39.9868 27.181L39.9818 27.178L38.0018 25.924L39.7418 24.659L41.0518 25.488C42.2688 26.258 42.3248 28.068 41.1568 28.918L25.0658 40.627C24.3798 41.127 23.4648 41.124 22.7798 40.622L6.8348 28.912C5.6768 28.062 5.7328 26.264 6.9408 25.492L8.2368 24.664Z" fill="white"/>
</svg>
