<svg width="26" height="26" viewBox="0 0 26 26" fill="none" xmlns="http://www.w3.org/2000/svg">
<g clip-path="url(#clip0_42_43)">
<path d="M8.00001 0.188012C6.96662 0.17632 5.94118 0.369761 4.98307 0.757132C4.02496 1.1445 3.15322 1.71811 2.41833 2.44472C1.68345 3.17134 1.10002 4.03654 0.701832 4.9902C0.303647 5.94387 0.0986176 6.96706 0.0986176 8.00051C0.0986176 9.03397 0.303647 10.0572 0.701832 11.0108C1.10002 11.9645 1.68345 12.8297 2.41833 13.5563C3.15322 14.2829 4.02496 14.8565 4.98307 15.2439C5.94118 15.6313 6.96662 15.8247 8.00001 15.813C10.0721 15.813 12.0594 14.9899 13.5246 13.5246C14.9899 12.0594 15.813 10.0721 15.813 8.00001C15.813 5.92788 14.9899 3.94061 13.5246 2.47539C12.0594 1.01016 10.0721 0.188012 8.00001 0.188012ZM5.50001 2.90501C5.84089 2.90448 6.17852 2.97125 6.49354 3.10149C6.80856 3.23173 7.09478 3.42287 7.33577 3.66395C7.57676 3.90504 7.7678 4.19133 7.89791 4.5064C8.02803 4.82147 8.09467 5.15913 8.09401 5.50001C8.09493 5.84092 8.02847 6.17865 7.89843 6.49378C7.7684 6.80892 7.57736 7.09525 7.3363 7.33631C7.09524 7.57737 6.80892 7.7684 6.49378 7.89844C6.17864 8.02847 5.84092 8.09494 5.50001 8.09401C5.1591 8.09494 4.82137 8.02847 4.50623 7.89844C4.1911 7.7684 3.90477 7.57737 3.66371 7.33631C3.42265 7.09525 3.23162 6.80892 3.10158 6.49378C2.97155 6.17865 2.90508 5.84092 2.90601 5.50001C2.90548 5.15922 2.97222 4.82166 3.10239 4.50671C3.23257 4.19175 3.42362 3.90558 3.6646 3.6646C3.90558 3.42362 4.19175 3.23257 4.5067 3.1024C4.82166 2.97222 5.15921 2.90448 5.50001 2.90501ZM16.594 11.624C16.3199 12.2655 15.9736 12.8738 15.562 13.437L23.375 21.249C23.5393 21.4156 23.6314 21.6401 23.6314 21.874C23.6314 22.1079 23.5393 22.3325 23.375 22.499C23.2085 22.6633 22.9839 22.7554 22.75 22.7554C22.5161 22.7554 22.2916 22.6633 22.125 22.499L14.406 14.749C13.4311 15.6724 12.2697 16.3762 11 16.813V18.188C11 18.628 11.371 19 11.813 19H14V21.188C14 21.628 14.371 22 14.813 22H17V24.188C17 24.628 17.372 25 17.813 25H20.031L20.594 25.563C20.936 25.904 24.362 26.075 25.219 25.219C26.076 24.361 25.903 20.935 25.562 20.594L16.594 11.624Z" fill="#006A78"/>
</g>
<defs>
<clipPath id="clip0_42_43">
<rect width="26" height="26" fill="white"/>
</clipPath>
</defs>
</svg>
