<svg width="256" height="256" viewBox="0 0 256 256" fill="none" xmlns="http://www.w3.org/2000/svg">
<path d="M100 64C100.001 58.6328 98.4585 53.3786 95.5575 48.8629C92.6564 44.3473 88.5187 40.7606 83.637 38.53C78.7553 36.2993 73.3354 35.5187 68.0226 36.2811C62.7098 37.0435 57.7281 39.3168 53.6707 42.8303C49.6134 46.3437 46.6513 50.9493 45.1372 56.0985C43.6231 61.2477 43.6209 66.7236 45.1307 71.874C46.6406 77.0244 49.599 81.6324 53.6535 85.1492C57.708 88.6659 62.6878 90.9433 68 91.71V164.29C60.9936 165.301 54.6304 168.929 50.1908 174.443C45.7512 179.956 43.5649 186.947 44.0719 194.008C44.5788 201.069 47.7414 207.675 52.9231 212.498C58.1048 217.322 64.921 220.003 72 220.003C79.0789 220.003 85.8952 217.322 91.0769 212.498C96.2586 207.675 99.4212 201.069 99.9281 194.008C100.435 186.947 98.2487 179.956 93.8092 174.443C89.3696 168.929 83.0063 165.301 76 164.29V91.71C82.6635 90.7482 88.7573 87.4177 93.1651 82.3286C97.5728 77.2395 99.9993 70.7326 100 64ZM52 64C52 60.0444 53.173 56.1776 55.3706 52.8886C57.5682 49.5996 60.6918 47.0362 64.3463 45.5224C68.0008 44.0087 72.0222 43.6126 75.9018 44.3843C79.7814 45.156 83.3451 47.0608 86.1421 49.8579C88.9392 52.6549 90.844 56.2186 91.6157 60.0982C92.3874 63.9778 91.9913 67.9992 90.4776 71.6537C88.9638 75.3082 86.4004 78.4318 83.1114 80.6294C79.8224 82.827 75.9556 84 72 84C66.6957 84 61.6086 81.8929 57.8579 78.1422C54.1071 74.3914 52 69.3044 52 64ZM92 192C92 195.956 90.827 199.822 88.6294 203.111C86.4318 206.4 83.3082 208.964 79.6537 210.478C75.9991 211.991 71.9778 212.387 68.0982 211.616C64.2186 210.844 60.6549 208.939 57.8579 206.142C55.0608 203.345 53.156 199.781 52.3843 195.902C51.6126 192.022 52.0086 188.001 53.5224 184.346C55.0361 180.692 57.5996 177.568 60.8886 175.371C64.1776 173.173 68.0444 172 72 172C74.6264 172 77.2271 172.517 79.6537 173.522C82.0802 174.528 84.285 176.001 86.1421 177.858C87.9993 179.715 89.4725 181.92 90.4776 184.346C91.4827 186.773 92 189.374 92 192ZM204 164.29V110.63C204.006 108.001 203.492 105.397 202.486 102.969C201.48 100.54 200.003 98.3347 198.14 96.48L153.66 52H192C193.061 52 194.078 51.5786 194.828 50.8284C195.579 50.0783 196 49.0609 196 48C196 46.9392 195.579 45.9217 194.828 45.1716C194.078 44.4214 193.061 44 192 44H144C142.939 44 141.922 44.4214 141.172 45.1716C140.421 45.9217 140 46.9392 140 48V96C140 97.0609 140.421 98.0783 141.172 98.8284C141.922 99.5786 142.939 100 144 100C145.061 100 146.078 99.5786 146.828 98.8284C147.579 98.0783 148 97.0609 148 96V57.66L192.49 102.14C193.604 103.255 194.487 104.579 195.09 106.036C195.692 107.493 196.001 109.054 196 110.63V164.29C188.994 165.301 182.63 168.929 178.191 174.443C173.751 179.956 171.565 186.947 172.072 194.008C172.579 201.069 175.741 207.675 180.923 212.498C186.105 217.322 192.921 220.003 200 220.003C207.079 220.003 213.895 217.322 219.077 212.498C224.259 207.675 227.421 201.069 227.928 194.008C228.435 186.947 226.249 179.956 221.809 174.443C217.37 168.929 211.006 165.301 204 164.29ZM200 212C196.044 212 192.178 210.827 188.889 208.629C185.6 206.432 183.036 203.308 181.522 199.654C180.009 195.999 179.613 191.978 180.384 188.098C181.156 184.219 183.061 180.655 185.858 177.858C188.655 175.061 192.219 173.156 196.098 172.384C199.978 171.613 203.999 172.009 207.654 173.522C211.308 175.036 214.432 177.6 216.629 180.889C218.827 184.178 220 188.044 220 192C220 197.304 217.893 202.391 214.142 206.142C210.391 209.893 205.304 212 200 212Z" fill="#006A78"/>
</svg>
