<svg width="512" height="352" viewBox="0 0 512 352" fill="none" xmlns="http://www.w3.org/2000/svg">
<path d="M505.57 154.62C502.29 151.09 478.75 122.33 466.06 106.83C459.31 98.59 453.98 92.08 451.74 89.38L451.56 89.16L451.36 88.95C446.14 83.12 438.72 76.44 427.58 76.44C425.769 76.464 423.961 76.611 422.17 76.88C421.8 76.93 421.42 76.99 421.02 77.03C418.57 77.3 410.96 78.53 392.88 81.51C378.88 83.8 357.77 87.28 354.57 87.58L353.86 87.64L353.17 87.77C343.17 89.55 336.55 93.99 333.61 100.96C332.06 104.64 330.39 112.11 336.55 120.82C338.08 123.04 343.38 130.38 352.49 142.99C358.55 151.39 365.36 160.81 371.24 168.99L259.9 195L150.66 16.05L150.46 15.71L150.23 15.38L149.79 14.73C145.32 8.17 139.76 0 123.7 0C122.57 0 121.39 6.10948e-07 120.07 0.110001C115.47 0.360001 98.65 1.68 79.18 3.22C57.69 4.91 28.28 7.22 24.46 7.32H23.73L22.94 7.4C13.8 8.29 7.16996 12 3.23996 18.4C-3.31004 29.09 1.81996 41.09 3.49996 45.03C6.86996 53 37.56 117.7 64.63 174.81C82.63 212.75 101.21 251.98 102.73 255.46C105.403 261.961 109.979 267.501 115.858 271.354C121.736 275.207 128.643 277.193 135.67 277.05C138.986 277.035 142.292 276.667 145.53 275.95H145.74L145.94 275.9C159.8 272.52 203.77 261.36 235.14 253.31C237.04 256.63 239.04 260.14 241.14 263.75C263.07 302.25 279.04 330.1 284.3 337.21C287 341 295 352 310.06 352C315.52 352 320.52 350.6 325.8 349.11L327.33 348.68H327.45C337.98 345.68 478.14 296.52 485.32 293.33L485.54 293.23C490.98 290.82 499.2 287.18 501.72 277.83C503.37 271.71 501.9 265.5 497.34 259.37L497.27 259.28L497.2 259.19C496.35 258.09 493.2 253.98 488.93 248.29C479.8 236.22 465.05 216.72 452.09 199.75C469.46 195.25 490.89 189.64 495.47 188.2C506.94 184.77 510.41 177.51 511.47 173.47C512.26 170.32 513.29 162.27 505.57 154.62ZM185.57 212.81C167.76 216.98 155.35 219.89 147.68 221.71C141.01 208.37 127.94 182.06 115.18 156.38C85.44 96.46 70.08 65.61 62 49.48L70.15 48.78C83.49 47.63 101.76 46.06 111.93 45.21C128.69 73.47 186.25 170.51 208.23 207.51L185.57 212.81ZM363.73 279.45C339.52 287.45 326.4 291.82 319.31 294.19C313.01 283.85 299.15 260.67 286.84 240L402.54 210.52C407.54 217.33 417.11 230.24 436 255.45C417.93 261.49 387.8 271.47 363.73 279.45ZM419.6 157.82L395.84 126.29C409.51 123.9 417.38 122.52 421.99 121.69L433.99 136.57L445.93 151.39C437.73 153.38 428.19 155.71 419.6 157.82Z" fill="white"/>
</svg>
